<?xml version="1.0" standalone="no"?>
<!DOCTYPE svg PUBLIC "-//W3C//DTD SVG 20010904//EN"
 "http://www.w3.org/TR/2001/REC-SVG-20010904/DTD/svg10.dtd">
<svg version="1.0" xmlns="http://www.w3.org/2000/svg"
 width="48.000000pt" height="48.000000pt" viewBox="0 0 48.000000 48.000000"
 preserveAspectRatio="xMidYMid meet">

<g transform="translate(0.000000,48.000000) scale(0.100000,-0.100000)"
fill="#000000" stroke="none">
<path d="M160 467 c-49 -16 -133 -102 -148 -153 -28 -94 -8 -169 63 -239 101
-102 229 -102 330 0 102 101 102 229 0 330 -70 71 -152 91 -245 62z m170 -18
c25 -11 56 -30 69 -42 36 -33 71 -115 71 -167 0 -49 -29 -122 -63 -159 -33
-36 -115 -71 -167 -71 -52 0 -134 35 -167 71 -61 66 -78 170 -42 249 27 60 54
88 114 116 62 29 125 30 185 3z"/>
<path d="M128 389 c-39 -51 -52 -110 -34 -152 7 -19 24 -42 37 -51 19 -13 24
-26 24 -63 0 -44 2 -48 32 -56 20 -6 49 -6 75 -1 42 9 43 10 42 49 l-2 39 22
-27 c26 -32 37 -34 59 -9 26 28 20 38 -7 13 l-24 -22 -19 27 c-26 35 -46 24
-37 -21 5 -31 4 -33 -30 -39 -20 -4 -52 -4 -72 0 l-36 7 7 46 c6 44 4 48 -21
61 -54 29 -62 98 -20 178 19 36 35 41 43 12 5 -17 14 -20 69 -20 53 0 66 3 76
20 18 28 24 25 42 -20 29 -74 17 -120 -32 -120 -19 0 -23 5 -20 23 2 14 9 21
20 21 10 -1 16 2 13 6 -2 4 -26 8 -52 8 -27 1 -43 -2 -36 -6 6 -4 13 -21 16
-37 l4 -30 2 33 c1 39 18 43 23 5 2 -22 9 -29 31 -31 60 -7 74 49 36 139 l-22
50 -26 -26 c-22 -20 -37 -25 -79 -25 -29 0 -52 4 -52 8 0 5 -6 16 -13 27 -13
17 -15 16 -39 -16z"/>
<path d="M194 288 c-4 -6 0 -16 9 -23 22 -16 21 -22 0 -28 -14 -4 -13 -5 4 -6
30 -1 38 16 13 31 -23 15 -27 33 -5 24 8 -3 15 -1 15 4 0 14 -27 12 -36 -2z"/>
<path d="M131 263 c-1 -29 2 -33 24 -33 22 0 25 4 24 33 -1 29 -2 29 -8 8 -9
-35 -29 -37 -34 -4 -4 27 -4 27 -6 -4z"/>
<path d="M204 159 c-3 -6 1 -18 10 -27 19 -19 49 -7 54 22 3 12 -4 16 -27 16
-16 0 -33 -5 -37 -11z"/>
</g>
</svg>
